<svg width="931" height="132" viewBox="0 0 931 132" fill="none" xmlns="http://www.w3.org/2000/svg">
<path d="M3.6 16V58H13.2V16H3.6ZM34.5164 58.84C40.3964 58.84 45.4964 55.78 48.0764 51.1L40.2164 46.6C39.2564 48.7 37.0364 49.96 34.3964 49.96C30.4964 49.96 27.6164 47.14 27.6164 43C27.6164 38.86 30.4964 36.04 34.3964 36.04C37.0364 36.04 39.1964 37.3 40.2164 39.4L48.0764 34.84C45.4964 30.22 40.3364 27.16 34.5164 27.16C25.3964 27.16 18.6164 34.06 18.6164 43C18.6164 51.94 25.3964 58.84 34.5164 58.84ZM65.5125 58.84C74.3325 58.84 81.4125 51.94 81.4125 43C81.4125 34.06 74.3325 27.16 65.5125 27.16C56.6925 27.16 49.6125 34.06 49.6125 43C49.6125 51.94 56.6925 58.84 65.5125 58.84ZM65.5125 50.08C61.6125 50.08 58.6125 47.26 58.6125 43C58.6125 38.74 61.6125 35.92 65.5125 35.92C69.4125 35.92 72.4125 38.74 72.4125 43C72.4125 47.26 69.4125 50.08 65.5125 50.08ZM104.083 27.16C100.123 27.16 97.1231 28.6 95.5031 30.82V28H86.5031V58H95.5031V41.62C95.5031 37.36 97.7831 35.44 101.083 35.44C103.963 35.44 106.303 37.18 106.303 40.9V58H115.303V39.58C115.303 31.48 110.143 27.16 104.083 27.16ZM130.004 36.76C130.004 35.68 130.964 35.08 132.524 35.08C134.504 35.08 135.704 36.16 136.544 37.72L144.224 33.58C141.704 29.32 137.384 27.16 132.524 27.16C126.284 27.16 120.764 30.46 120.764 37C120.764 47.38 135.524 45.64 135.524 48.94C135.524 50.14 134.444 50.8 132.284 50.8C129.644 50.8 127.964 49.54 127.184 47.26L119.384 51.7C121.724 56.56 126.284 58.84 132.284 58.84C138.764 58.84 144.764 55.9 144.764 49C144.764 37.9 130.004 40.18 130.004 36.76Z" fill="#222222"/>
<g clip-path="url(#clip0_2_1282)">
<path fill-rule="evenodd" clip-rule="evenodd" d="M15 120.75V122.25L7 122.25L7 127.751L-0.000659943 120.75L15 120.75Z" fill="#222222"/>
</g>
<g clip-path="url(#clip1_2_1282)">
<path fill-rule="evenodd" clip-rule="evenodd" d="M54.9993 122.25V120.75L62.9993 120.75L62.9993 115.249L70 122.25L54.9993 122.25Z" fill="#222222"/>
</g>
<g clip-path="url(#clip2_2_1282)">
<path fill-rule="evenodd" clip-rule="evenodd" d="M118.25 129H116.75V121H111.249L118.25 114V129Z" fill="#222222"/>
</g>
<g clip-path="url(#clip3_2_1282)">
<path fill-rule="evenodd" clip-rule="evenodd" d="M171.75 114H173.25V122H178.751L171.75 129.001V114Z" fill="#222222"/>
</g>
<path fill-rule="evenodd" clip-rule="evenodd" d="M228.25 131.426C228.342 131.5 228.416 131.558 228.467 131.597L228.999 131.996L229.531 131.597C229.582 131.558 229.656 131.5 229.748 131.426C229.934 131.277 230.197 131.061 230.512 130.786C231.14 130.238 231.979 129.452 232.821 128.506C234.47 126.653 236.273 124.024 236.273 121.274C236.273 117.257 233.016 114 228.999 114C224.982 114 221.725 117.257 221.725 121.274C221.725 124.024 223.528 126.653 225.177 128.506C226.019 129.452 226.858 130.238 227.486 130.786C227.801 131.061 228.064 131.277 228.25 131.426ZM228.999 115.5C225.81 115.5 223.225 118.085 223.225 121.274C223.225 123.432 224.684 125.696 226.297 127.509C227.086 128.396 227.878 129.137 228.473 129.656C228.674 129.832 228.852 129.981 228.999 130.102C229.146 129.981 229.324 129.832 229.525 129.656C230.12 129.137 230.912 128.396 231.701 127.509C233.314 125.696 234.773 123.432 234.773 121.274C234.773 118.085 232.188 115.5 228.999 115.5Z" fill="#222222"/>
<path fill-rule="evenodd" clip-rule="evenodd" d="M228.999 118.762C227.612 118.762 226.487 119.887 226.487 121.274C226.487 122.662 227.612 123.786 228.999 123.786C230.386 123.786 231.511 122.662 231.511 121.274C231.511 119.887 230.386 118.762 228.999 118.762ZM224.987 121.274C224.987 119.058 226.783 117.262 228.999 117.262C231.215 117.262 233.011 119.058 233.011 121.274C233.011 123.49 231.215 125.286 228.999 125.286C226.783 125.286 224.987 123.49 224.987 121.274Z" fill="#222222"/>
<path fill-rule="evenodd" clip-rule="evenodd" d="M284.801 128.466C284.878 128.528 284.938 128.575 284.981 128.608L285.499 128.996L286.017 128.608C286.06 128.575 286.12 128.528 286.197 128.466C286.35 128.344 286.566 128.166 286.824 127.94C287.34 127.49 288.029 126.845 288.721 126.067C290.07 124.552 291.573 122.373 291.573 120.074C291.573 116.719 288.854 114 285.499 114C282.144 114 279.425 116.719 279.425 120.074C279.425 122.373 280.928 124.552 282.277 126.067C282.969 126.845 283.658 127.49 284.174 127.94C284.432 128.166 284.648 128.344 284.801 128.466ZM285.499 115.5C282.973 115.5 280.925 117.548 280.925 120.074C280.925 121.781 282.084 123.595 283.397 125.07C284.036 125.789 284.678 126.389 285.16 126.81C285.285 126.919 285.399 127.016 285.499 127.099C285.599 127.016 285.713 126.919 285.838 126.81C286.32 126.389 286.962 125.789 287.601 125.07C288.914 123.595 290.073 121.781 290.073 120.074C290.073 117.548 288.025 115.5 285.499 115.5Z" fill="#222222"/>
<path fill-rule="evenodd" clip-rule="evenodd" d="M285.499 118.162C284.443 118.162 283.587 119.018 283.587 120.074C283.587 121.13 284.443 121.986 285.499 121.986C286.555 121.986 287.411 121.13 287.411 120.074C287.411 119.018 286.555 118.162 285.499 118.162ZM282.087 120.074C282.087 118.19 283.615 116.662 285.499 116.662C287.383 116.662 288.911 118.19 288.911 120.074C288.911 121.959 287.383 123.486 285.499 123.486C283.615 123.486 282.087 121.959 282.087 120.074Z" fill="#222222"/>
<g clip-path="url(#clip4_2_1282)">
<path fill-rule="evenodd" clip-rule="evenodd" d="M346.471 114.039C345.75 113.873 345.02 114.25 344.729 114.921L344.728 114.924L343.179 118.534C342.912 119.157 343.089 119.884 343.618 120.313L345.105 121.531C344.078 123.448 342.482 125.06 340.532 126.103L339.312 124.614C338.883 124.091 338.162 123.909 337.535 124.177L333.927 125.722L333.921 125.725C333.252 126.019 332.872 126.749 333.039 127.47L333.812 130.821C333.971 131.51 334.584 132 335.296 132C343.961 132 350.998 124.98 351 116.302C351.005 115.589 350.516 114.974 349.823 114.815L346.471 114.039ZM346.105 115.518L344.558 119.125L346.971 121.121L346.723 121.65C345.489 124.279 343.336 126.463 340.65 127.721L340.122 127.969L338.125 125.556L334.523 127.099C334.514 127.103 334.507 127.11 334.503 127.118C334.499 127.126 334.5 127.131 334.5 127.131L334.501 127.132L335.273 130.483C335.275 130.493 335.284 130.5 335.296 130.5C343.135 130.5 349.5 124.148 349.5 116.299V116.292C349.5 116.288 349.499 116.285 349.499 116.285L349.498 116.282L349.495 116.279C349.495 116.279 349.492 116.278 349.488 116.277L349.486 116.276L346.135 115.501C346.132 115.5 346.127 115.5 346.127 115.5C346.125 115.501 346.122 115.501 346.119 115.503C346.113 115.506 346.108 115.511 346.105 115.518Z" fill="#222222"/>
</g>
<path fill-rule="evenodd" clip-rule="evenodd" d="M402.609 115.942C404.071 114.48 406.441 114.48 407.903 115.942C409.366 117.404 409.366 119.774 407.903 121.236L407.48 121.66C407.187 121.953 406.712 121.953 406.419 121.66C406.126 121.367 406.126 120.892 406.419 120.599L406.843 120.176C407.719 119.299 407.719 117.879 406.843 117.002C405.967 116.126 404.546 116.126 403.669 117.002L396.472 124.2C396.063 124.609 396.063 125.271 396.472 125.68C396.88 126.088 397.543 126.088 397.951 125.68L403.456 120.176C403.749 119.883 404.223 119.883 404.516 120.176C404.809 120.469 404.809 120.943 404.516 121.236L399.012 126.741C398.018 127.735 396.405 127.735 395.411 126.741C394.417 125.746 394.417 124.134 395.411 123.14L402.609 115.942ZM399.859 116.365C400.152 116.658 400.152 117.133 399.859 117.426L393.508 123.777C392.164 125.121 392.164 127.3 393.508 128.644C394.852 129.988 397.031 129.988 398.375 128.644L404.726 122.293C405.019 122 405.494 122 405.786 122.293C406.079 122.586 406.079 123.06 405.786 123.353L399.436 129.704C397.506 131.634 394.377 131.634 392.447 129.704C390.518 127.775 390.518 124.646 392.447 122.716L398.798 116.365C399.091 116.072 399.566 116.072 399.859 116.365Z" fill="#222222"/>
<circle cx="458" cy="123" r="9" fill="#222222"/>
<path d="M457.117 120.1H458.857V118.42H457.117V120.1ZM456.961 126.124C456.961 126.736 457.225 127 457.837 127H459.757V125.26H459.301C459.133 125.26 459.037 125.164 459.037 124.996V121.696C459.037 121.084 458.773 120.82 458.161 120.82H456.241V122.56H456.697C456.865 122.56 456.961 122.656 456.961 122.824V126.124Z" fill="white"/>
<path fill-rule="evenodd" clip-rule="evenodd" d="M517.127 123.066L520.132 120.061L519.071 119L516.066 122.005L513.061 119L512 120.061L515.005 123.066L512 126.071L513.061 127.132L516.066 124.127L519.071 127.132L520.132 126.071L517.127 123.066Z" fill="#222222"/>
<path fill-rule="evenodd" clip-rule="evenodd" d="M927.53 119.266L919 127.796L916.47 125.266L917.53 124.205L919 125.675L926.47 118.205L927.53 119.266Z" fill="#222222"/>
<path d="M574.93 116.383C575.185 116.638 575.312 116.948 575.312 117.312C575.312 117.677 575.185 117.987 574.93 118.242C574.674 118.497 574.365 118.625 574 118.625C573.635 118.625 573.326 118.497 573.07 118.242C572.815 117.987 572.688 117.677 572.688 117.312C572.688 116.948 572.815 116.638 573.07 116.383C573.326 116.128 573.635 116 574 116C574.365 116 574.674 116.128 574.93 116.383ZM573.07 127.758C573.326 127.503 573.635 127.375 574 127.375C574.365 127.375 574.674 127.503 574.93 127.758C575.185 128.013 575.312 128.323 575.312 128.688C575.312 129.052 575.185 129.362 574.93 129.617C574.674 129.872 574.365 130 574 130C573.635 130 573.326 129.872 573.07 129.617C572.815 129.362 572.688 129.052 572.688 128.688C572.688 128.323 572.815 128.013 573.07 127.758ZM578.758 122.07C579.013 121.815 579.323 121.688 579.688 121.688C580.052 121.688 580.362 121.815 580.617 122.07C580.872 122.326 581 122.635 581 123C581 123.365 580.872 123.674 580.617 123.93C580.362 124.185 580.052 124.312 579.688 124.312C579.323 124.312 579.013 124.185 578.758 123.93C578.503 123.674 578.375 123.365 578.375 123C578.375 122.635 578.503 122.326 578.758 122.07ZM569.242 122.07C569.497 122.326 569.625 122.635 569.625 123C569.625 123.365 569.497 123.674 569.242 123.93C568.987 124.185 568.677 124.312 568.312 124.312C567.948 124.312 567.638 124.185 567.383 123.93C567.128 123.674 567 123.365 567 123C567 122.635 567.128 122.326 567.383 122.07C567.638 121.815 567.948 121.688 568.312 121.688C568.677 121.688 568.987 121.815 569.242 122.07ZM569.051 126.09C569.306 125.835 569.616 125.707 569.98 125.707C570.345 125.707 570.655 125.835 570.91 126.09C571.165 126.345 571.293 126.655 571.293 127.02C571.293 127.384 571.165 127.694 570.91 127.949C570.655 128.204 570.345 128.332 569.98 128.332C569.616 128.332 569.306 128.204 569.051 127.949C568.796 127.694 568.668 127.384 568.668 127.02C568.668 126.655 568.796 126.345 569.051 126.09ZM577.09 126.09C577.345 125.835 577.655 125.707 578.02 125.707C578.384 125.707 578.694 125.835 578.949 126.09C579.204 126.345 579.332 126.655 579.332 127.02C579.332 127.384 579.204 127.694 578.949 127.949C578.694 128.204 578.384 128.332 578.02 128.332C577.655 128.332 577.345 128.204 577.09 127.949C576.835 127.694 576.707 127.384 576.707 127.02C576.707 126.655 576.835 126.345 577.09 126.09ZM569.051 118.051C569.306 117.796 569.616 117.668 569.98 117.668C570.345 117.668 570.655 117.796 570.91 118.051C571.165 118.306 571.293 118.616 571.293 118.98C571.293 119.345 571.165 119.655 570.91 119.91C570.655 120.165 570.345 120.293 569.98 120.293C569.616 120.293 569.306 120.165 569.051 119.91C568.796 119.655 568.668 119.345 568.668 118.98C568.668 118.616 568.796 118.306 569.051 118.051Z" fill="#222222"/>
<path fill-rule="evenodd" clip-rule="evenodd" d="M626.47 120.761L627.53 119.7L632 124.17L636.47 119.7L637.53 120.761L632 126.291L626.47 120.761Z" fill="#222222"/>
<path fill-rule="evenodd" clip-rule="evenodd" d="M684.47 125.239L685.53 126.3L690 121.83L694.47 126.3L695.53 125.239L690 119.709L684.47 125.239Z" fill="#222222"/>
<path fill-rule="evenodd" clip-rule="evenodd" d="M747.25 122.25V118H748.75V122.25H753V123.75H748.75V128H747.25V123.75H743V122.25H747.25Z" fill="#222222"/>
<path fill-rule="evenodd" clip-rule="evenodd" d="M815 117.75H797V116.25H815V117.75ZM815 123.75H797V122.25H815V123.75ZM815 129.75H797V128.25H815V129.75Z" fill="#222222"/>
<path fill-rule="evenodd" clip-rule="evenodd" d="M862.939 123L855.47 115.53L856.53 114.47L864 121.939L871.47 114.47L872.53 115.53L865.061 123L872.53 130.47L871.47 131.53L864 124.061L856.53 131.53L855.47 130.47L862.939 123Z" fill="#222222"/>
<defs>
<clipPath id="clip0_2_1282">
<rect width="15" height="15" fill="white" transform="translate(0 114)"/>
</clipPath>
<clipPath id="clip1_2_1282">
<rect width="15" height="15" fill="white" transform="translate(55 114)"/>
</clipPath>
<clipPath id="clip2_2_1282">
<rect width="15" height="15" fill="white" transform="translate(110 114)"/>
</clipPath>
<clipPath id="clip3_2_1282">
<rect width="15" height="15" fill="white" transform="translate(165 114)"/>
</clipPath>
<clipPath id="clip4_2_1282">
<rect width="18" height="18" fill="white" transform="translate(333 114)"/>
</clipPath>
</defs>
</svg>
